<?xml version="1.0" standalone="no"?>
<!DOCTYPE svg PUBLIC "-//W3C//DTD SVG 20010904//EN"
 "http://www.w3.org/TR/2001/REC-SVG-20010904/DTD/svg10.dtd">
<svg version="1.0" xmlns="http://www.w3.org/2000/svg"
 width="700.000000pt" height="700.000000pt" viewBox="0 0 700.000000 700.000000"
 preserveAspectRatio="xMidYMid meet">
<metadata>
Created by potrace 1.11, written by Peter Selinger 2001-2013
</metadata>
<g transform="translate(0.000000,700.000000) scale(0.100000,-0.100000)"
fill="#000000" stroke="none">
<path d="M6375 6807 c-27 -28 -163 -161 -301 -296 -423 -416 -805 -839 -1196
-1328 -130 -162 -427 -554 -513 -677 -22 -31 -58 -82 -81 -114 -270 -379 -688
-1054 -878 -1419 l-38 -71 -121 85 c-121 86 -170 120 -320 224 -43 30 -122 85
-175 122 -53 37 -144 100 -202 139 -58 39 -114 79 -125 88 -11 9 -69 50 -128
91 -60 41 -159 109 -220 152 -201 140 -259 179 -262 175 -1 -1 -73 -88 -160
-193 -217 -262 -337 -405 -357 -427 -10 -10 -18 -22 -18 -26 0 -5 30 -35 67
-68 37 -32 103 -92 148 -133 116 -108 137 -127 505 -461 184 -167 405 -368
490 -446 85 -78 243 -222 350 -319 107 -98 238 -217 290 -264 52 -47 151 -138
220 -201 69 -63 190 -173 268 -245 78 -71 142 -133 142 -137 0 -4 6 -8 13 -8
9 0 25 42 46 118 122 440 345 1047 583 1582 184 412 498 1036 698 1385 13 22
35 60 48 85 162 291 439 741 671 1090 269 403 473 694 738 1046 46 60 83 115
83 121 0 10 -32 74 -126 249 -30 56 -54 109 -54 118 0 29 -34 14 -85 -37z"/>
<path d="M360 3300 l0 -3150 3140 0 3140 0 0 2595 0 2595 -125 0 -125 0 0
-2462 0 -2463 -2890 3 -2890 2 0 2890 0 2890 2265 0 2265 0 0 125 0 125 -2390
0 -2390 0 0 -3150z"/>
</g>
</svg>
