<svg xmlns="http://www.w3.org/2000/svg" width="50" height="50" viewBox="0 0 50 50">
  <g id="noun_Home_3323233_1_" data-name="noun_Home_3323233 (1)" transform="translate(-0.6 -5.1)">
    <path id="Pfad_636" data-name="Pfad 636" d="M7.717,31.266h-5.9A1.244,1.244,0,0,1,.6,29.983a1.533,1.533,0,0,1,.422-1.049L24.693,5.45a1.069,1.069,0,0,1,1.582,0L50.209,28.993a1.458,1.458,0,0,1,.105,1.865,1.164,1.164,0,0,1-.9.466h-6.01V53.818a1.236,1.236,0,0,1-1.16,1.282H32.231a1.244,1.244,0,0,1-1.213-1.282V39.307H19.632V53.76a1.244,1.244,0,0,1-1.213,1.282H8.93A1.244,1.244,0,0,1,7.717,53.76Z" transform="translate(0 0)" fill="#373a3c" fill-rule="evenodd"/>
  </g>
</svg>
