<svg xmlns="http://www.w3.org/2000/svg" width="50" height="50" viewBox="0 0 50 50">
  <g id="Gruppe_24" data-name="Gruppe 24" transform="translate(-35 -410)">
    <g id="Gruppe_25" data-name="Gruppe 25">
      <g id="Abmelden_Icon2" transform="translate(35 409.858)">
        <g id="Gruppe_19" data-name="Gruppe 19" transform="translate(0.038 0.142)">
          <g id="Gruppe_18" data-name="Gruppe 18">
            <path id="Pfad_639" data-name="Pfad 639" d="M44.391.142H6.139A5.864,5.864,0,0,0,.284,6v7.813h3.9V6A1.955,1.955,0,0,1,6.139,4.048H44.391A1.955,1.955,0,0,1,46.343,6V44.283a1.955,1.955,0,0,1-1.952,1.953H6.139a1.955,1.955,0,0,1-1.952-1.953V36.47H.284v7.813a5.864,5.864,0,0,0,5.855,5.859H44.391a5.864,5.864,0,0,0,5.855-5.859V6A5.864,5.864,0,0,0,44.391.142Z" transform="translate(-0.284 -0.142)" fill="#373a3c"/>
          </g>
        </g>
        <g id="Gruppe_21" data-name="Gruppe 21" transform="translate(0 8.452)">
          <g id="Gruppe_20" data-name="Gruppe 20">
            <path id="Pfad_640" data-name="Pfad 640" d="M48.919,145.789H10.282l10.206-10.206-3.8-3.8L0,148.475l16.69,16.69,3.8-3.8L10.282,151.161H48.919Z" transform="translate(0 -131.785)" fill="#373a3c"/>
          </g>
        </g>
      </g>
    </g>
  </g>
</svg>
