<?xml version="1.0" encoding="utf-8"?>
<!-- Generator: Adobe Illustrator 23.0.1, SVG Export Plug-In . SVG Version: 6.00 Build 0)  -->
<svg version="1.1" id="Ebene_1" xmlns="http://www.w3.org/2000/svg" xmlns:xlink="http://www.w3.org/1999/xlink" x="0px" y="0px"
	 viewBox="0 0 4000 1000" style="enable-background:new 0 0 4000 1000;" xml:space="preserve">
<style type="text/css">
	.st0{fill:#343466;}
	.st1{fill:#ACACC0;}
	.st2{fill:#679834;}
</style>
<g>
	<g>
		<path class="st0" d="M3755,345c-0.5,0.7-1.3,1.4-1.6,2.2c-28.1,70.9-56.2,141.9-84.3,212.8c-14.1,35.6-28.2,71.3-42.4,106.9
			c-9.9,24.8-19.6,49.7-29.8,74.4c-8.5,20.7-19.5,40-34.4,56.9c-16.8,19.1-36.9,32.3-62.6,35.9c-0.4,0.1-0.7,0.6-1,0.9
			c-10.7,0-21.3,0-32,0c-2.3-0.6-4.5-1.4-6.9-1.9c-3-0.7-6.1-1.4-9-2c0-16.3,0-32,0-47.3c8.1,1.6,16,3.5,24,4.6
			c16.5,2.2,31.3-1.9,44.1-12.8c11.1-9.4,18.1-21.6,23.6-34.7c8.4-19.7,16.5-39.5,25-59.2c1.4-3.4,1.3-6.2,0-9.5
			c-25.3-64.6-50.6-129.2-75.9-193.8c-16.7-42.7-33.4-85.3-50.1-127.9c-0.7-1.8-1.4-3.7-2.1-5.6c4-1,46.2-1.4,59.1-0.5
			c0.6,1.5,1.4,3.2,2,4.9c21.9,62.3,43.8,124.6,65.6,186.9c7.3,20.8,14.7,41.6,21.8,62.5c2.6,7.7,4.5,15.6,6.7,23.4
			c0.4,1.4,0.9,2.7,1.6,5.2c0.8-1.9,1.3-2.7,1.5-3.5c4.9-21.8,13.5-42.3,21.1-63.2c16.8-46,33.8-91.8,50.7-137.8
			c9.4-25.5,18.8-51.1,28.2-76.6c0.2-0.6,0.6-1.2,1.1-2.1c18.5,0,37.2,0,55.8,0C3755,344.3,3755,344.7,3755,345z"/>
		<path class="st0" d="M3367,184c0.1,1.6,0.3,3.3,0.3,4.9c0,161.3,0,322.6,0,483.9c0,1.5,0,3,0,4.8c-17.7,0-35.3,0-53.4,0
			c0-164.5,0-329.1,0-493.7C3331.7,184,3349.3,184,3367,184z"/>
		<path class="st1" d="M1056.9,470.1l-0.4-0.1l-0.5,0c0-11.3,0-22.7,0-34c0.3,0.1,0.6,0,0.9-0.1
			C1056.9,447.3,1056.9,458.7,1056.9,470.1z"/>
		<path class="st0" d="M1056.9,470.1c0-11.4,0-22.7,0-34.1c1.7-38.1,9.9-74.7,27.2-108.8c9.2-18,20.7-34.5,34.3-49.4
			c18.5-20.2,39.7-36.9,64.1-49.4c18.6-9.6,38.2-16.1,58.6-20.3c23.1-4.8,46.5-5.6,70-4.8c24.7,0.8,49,3.8,72.7,10.9
			c7.1,2.1,14.1,4.8,21,7.1c0,19.9,0,39.2,0,58.6c-7.1-3.3-13.9-6.7-20.9-9.8c-19.6-8.5-40.1-13.8-61.4-16.1
			c-11.6-1.3-23.2-2-34.9-1.6c-37.3,1.2-71.8,11-101.8,33.9c-28.6,21.8-48.2,50.1-59.8,84.1c-5.3,15.6-8.6,31.7-10.3,48.1
			c-1.5,13.9-2.3,27.9-1.7,41.8c1.3,30.8,6.7,60.7,20.8,88.5c17.3,33.9,42.8,59.4,78,74.7c14.2,6.2,29.1,10,44.6,11.9
			c11.8,1.4,23.5,2,35.3,1.6c31.4-1.2,62-6.7,90.9-19.9c7.1-3.2,13.9-7,21.1-10.6c0,17.6,0,35.2,0,53.4c-7.1,3-14.3,6.4-21.7,9.2
			c-18.9,7.2-38.4,11.5-58.4,14.2c-21.2,2.9-42.5,3.6-63.7,2.6c-38.5-1.9-74.7-11.4-107.4-32.6c-27.8-18-49.5-41.7-66-70.3
			c-13.7-23.7-22.1-49.3-26.7-76.2C1058.8,494.6,1057.3,482.4,1056.9,470.1z"/>
		<path class="st0" d="M2660.1,523.9c-78.5,0-156.6,0-235.1,0c0,2.8-0.1,5.2,0,7.6c1.2,17,4,33.6,10.8,49.4
			c13.3,30.7,36.2,49.9,68.9,57c16.7,3.7,33.6,3.6,50.6,1.4c29.1-3.8,54.8-15.4,78.1-32.8c1-0.8,2.1-1.5,3.5-2.4c0,17,0,33.6,0,50.3
			c-14,10.3-29.5,17.4-45.9,22.4c-15.2,4.6-30.7,7.6-46.5,8.3c-12,0.5-24,1.3-35.9,0.7c-27.5-1.4-53.3-8.6-76.2-24.7
			c-23.2-16.3-39.1-38.2-49.3-64.4c-6.6-16.8-10.2-34.3-12.2-52.2c-1.5-13.3-2-26.5-1.6-39.9c0.9-29.6,6.4-58.1,20.1-84.6
			c16.5-31.8,40.3-56.4,73.1-71.6c13.8-6.4,28.4-10.1,43.6-11.6c21.6-2,42.9-0.8,63.7,5.5c29.7,9,51.9,27.5,67.6,54.2
			c9.5,16.2,15.2,33.8,18.9,52.2C2661,473.4,2660,498.3,2660.1,523.9z M2605.5,478.7c-0.4-5.9-0.8-11.4-1.3-16.9
			c-0.9-11.7-3.6-23-8.2-33.7c-8.4-19.5-21.8-34.1-42-41.6c-13.6-5.1-27.7-6.3-42.2-4.8c-18.5,1.9-34.6,9.1-48.4,21.4
			c-15.7,13.9-26.1,31.3-32.4,51.2c-2.5,7.9-4.5,15.9-5.3,24.5C2485.5,478.7,2545.1,478.7,2605.5,478.7z"/>
		<path class="st0" d="M1648,686c-24.9,0.2-47.2-3.2-68.6-11.9c-32.5-13.1-56.7-35.5-73.6-65.8c-9.9-17.7-15.7-36.8-18.9-56.8
			c-2.6-16.7-3.3-33.4-2.5-50.2c1.2-25.2,5.4-49.9,15.8-73.1c19-42.5,50.8-70.7,95.5-84.3c24.2-7.4,49-8.9,74.1-7.5
			c19.7,1.2,38.8,5.3,56.9,13.5c31.5,14.3,53.9,37.8,68.4,68.9c7.9,17,12.6,34.9,15.1,53.5c2,15.4,3.1,30.8,2.5,46.3
			c-1.1,26.4-5.3,52.2-16.5,76.4c-20.8,44.8-54.8,74-103,86C1677.7,684.7,1662,686.4,1648,686z M1538.9,514.6
			c0.2,3.3,0.6,8.7,0.9,14.2c0.6,13,3.1,25.7,7.2,38.1c6.3,19.2,16.6,35.8,31.9,49.2c19.2,16.9,42.2,23.9,67.3,24.8
			c8.8,0.3,17.6-0.4,26.3-1.8c12.8-2,24.8-6.1,35.8-13c21.4-13.4,34-33.2,41.6-56.6c5.8-18,7.5-36.7,7.9-55.5
			c0.2-13.1-0.8-26.3-2.9-39.2c-2.4-14.3-6.3-28.2-13-41.1c-11.9-23.1-29.8-39.5-54.7-47.2c-19-5.9-38.5-6.6-58.2-3.4
			c-21.4,3.4-39.8,12.5-55,28c-12.1,12.3-20.5,26.9-26.1,43.1C1541.4,472.9,1539.4,492.5,1538.9,514.6z"/>
		<path class="st0" d="M3092,262.3c18.1-5.9,35.7-11.6,53.9-17.5c0,33.2,0,66,0,99.1c28.1,0,55.9,0,83.9,0c0,15.1,0,29.9,0,45
			c-27.8,0-55.5,0-83.6,0c-0.1,1.6-0.2,2.9-0.2,4.2c0,61.8,0,123.6,0,185.5c0,11.2,0.9,22.2,4,33c4.5,15.8,15,25.2,31,28.1
			c11.9,2.2,23.9,2,35.3-2.6c4.6-1.8,8.9-4.3,13.5-6.6c0,14.9,0,30,0,45.2c-7,4.2-14.8,6.6-22.8,8c-18.5,3.3-37.1,3.7-55.5-0.7
			c-25.4-6.1-42.7-21.3-51.7-45.9c-3.9-10.7-6.2-21.7-6.9-33c-0.5-8.1-0.8-16.3-0.8-24.4c-0.1-61.5,0-123,0-184.5c0-1.8,0-3.7,0-6
			c-19,0-37.9,0-56.9,0c0-15.3,0-30,0-45.1c19,0,37.7,0,56.8,0C3092,316.7,3092,289.7,3092,262.3z"/>
		<path class="st0" d="M2981.7,612.4c0,16.2,0,32.2,0.1,48.2c0,2.3-1.4,3.2-3,4.1c-9.8,5.6-20.2,10-31,13.4c-17.3,5.3-35,7.7-53,8
			c-17.9,0.3-35.5-1.3-52.8-6.1c-25-7-46.7-19.7-64.9-38.3c-23.3-23.9-37-52.5-42.7-85.1c-3.3-18.7-3.8-37.7-2.4-56.7
			c1.6-21,5.3-41.5,13.2-61.1c18.8-46.1,51.1-78.3,98.8-94.1c12.8-4.3,26-7,39.5-7.8c11.5-0.6,23-1.2,34.4-0.7
			c21.1,0.9,41.4,5.5,60.8,14.1c0.9,0.4,1.8,0.9,2.6,1.4c0.3,0.2,0.5,0.5,0.8,0.9c0,17.8,0,35.7,0,54.2c-1.2-0.7-2.2-1.1-3.1-1.7
			c-15.8-10.6-32.8-18.2-51.6-21.6c-32.9-5.9-64-1.7-91.5,18.7c-22.3,16.6-36.4,38.9-43.8,65.5c-5.1,18.1-6.7,36.6-5.8,55.3
			c0.9,19.7,4.1,39,12.9,57c15.1,31.1,39.1,51.2,73.3,58.1c37.4,7.6,71.5-0.5,102.8-21.9c1.8-1.2,3.5-2.5,5.3-3.7
			C2980.7,612.4,2980.8,612.5,2981.7,612.4z"/>
		<path class="st0" d="M1964.4,677.7c-17.8,0-35.4,0-53.2,0c0-111.2,0-222.2,0-333.5c17.7,0,35.3,0,53.3,0c0,23,0,45.7,0,68.4
			c0.3,0.1,0.6,0.2,0.9,0.2c0.5-1.2,1.2-2.4,1.6-3.7c5.1-14.4,12.1-27.7,22.1-39.3c12.8-14.9,28.5-25.3,48-29.5
			c9.5-2,19.2-1.8,28.8-1c5.1,0.4,10.1,1.7,15.2,2.6c1.3,0.2,2.5,0.8,3.8,1.3c0,18.5,0,36.8,0,55.3c-2.9-1.6-5.7-3.3-8.6-4.7
			c-6.8-3.3-14.2-4.7-21.6-5.4c-15.1-1.5-29.5,0.5-42.7,8.5c-10.1,6.1-18.1,14.5-24.9,24.1c-10,14.3-15.6,30.3-18.9,47.3
			c-2,10.1-3.2,20.4-3.2,30.7c-0.2,57.6-0.3,115.3-0.5,172.9C1964.3,673.9,1964.4,675.7,1964.4,677.7z"/>
		<path class="st0" d="M2156.3,344.2c17.7,0,35.1,0,53.1,0c0,6,0,11.7,0,17.5c0,5.7,0,11.3,0,17c0,5.8-0.1,11.7,0,17.5
			c0.1,5.5-0.5,11.1,1.2,16.8c0.5-1.5,1.1-2.9,1.6-4.4c6.5-17.5,15.5-33.4,29.2-46.4c13.5-12.7,29.2-21,47.7-22.8
			c13.6-1.3,27.2-0.8,40.6,3.9c0,18.5,0,36.9,0,55.8c-7.1-5.4-15.1-8.1-23.5-9.6c-23.7-4.1-45,0.6-62.6,17.8
			c-12.1,11.9-20.4,26.2-25.6,42.2c-5.3,16.1-8,32.6-8.1,49.5c-0.3,57.5-0.4,114.9-0.5,172.4c0,2,0,4,0,6.7c-17.7,0-35.2,0-53.1,0
			C2156.3,566.7,2156.3,455.7,2156.3,344.2z"/>
	</g>
</g>
<image style="display:none;overflow:visible;enable-background:new    ;" width="628" height="630" id="_2" xlink:href="87679347.png"  transform="matrix(1 0 0 1 318 185)">
</image>
<image style="display:none;overflow:visible;enable-background:new    ;" width="536" height="581" id="_1.2" xlink:href="87679345.png"  transform="matrix(1 0 0 1 410 267.3333)">
</image>
<g>
	<g>
		<path class="st2" d="M418,458c0.8,0,2,1.2,3.4,2.1c14.3,9.9,28.6,19.8,42.8,29.7c33.6,23.4,67.1,46.9,100.7,70.3
			c3.7,2.6,3.9,2.6,6.3-1.7c10.9-19.6,21.6-39.2,33.2-58.3c14.4-23.7,29.4-47.1,45.1-70c24.3-35.4,50-69.8,77.1-103.1
			c18.9-23.2,38.4-45.7,58.6-67.8c10.6-11.6,21.4-23,32.4-34.3c9.6-9.8,19.5-19.4,29.2-29c6.9-6.8,14.2-13.1,21.3-19.8
			c1.8-1.7,2.9-1.2,3.9,0.5c1.2,2.2,2.4,4.4,3.5,6.6c3.9,7.2,7.6,14.5,11.7,21.6c2.6,4.5,2.5,8.2-0.8,12.3
			c-14.2,18.2-27.8,36.7-41,55.6c-24.1,34.4-47.5,69.1-69.5,104.9c-18.6,30.3-36.5,61.1-53.2,92.5c-15.7,29.5-30.8,59.3-44.7,89.7
			c-14.8,32.3-28.7,65-41,98.4c-9.7,26.4-18.9,53.1-25.9,80.4c-1.2,4.8-2.1,5.1-5.7,1.9c-19.4-17.7-38.7-35.4-58.1-53
			c-15-13.7-30.1-27.4-45.2-41.2c-15.4-14.1-30.8-28.2-46.3-42.2c-15.1-13.7-30.1-27.5-45.2-41.2c-13.8-12.6-27.7-25.1-41.6-37.6
			c-5.3-4.8-5.4-4.8-1-10.1c15.2-18.4,30.6-36.7,45.8-55C414.7,459.2,415.4,458.1,418,458z"/>
		<path class="st2" d="M273.9,522.2c0-100,0-200,0-300.1c0-1.5,0.1-3,0-4.5c-0.1-2.1,1-3.1,3-3c1.2,0,2.3,0,3.5,0
			c17.2,0.1,34.5,0.3,51.7,0.3c133.7-0.5,267.4-0.1,401.1-0.3c8.5,0,8.5,0,8.5,8.4c0,3.2,0,6.4,0,9.5c-0.1,5.2-0.4,5.5-5.3,5.6
			c-1,0-2,0-3,0c-142.9,0-285.8,0-428.7,0c-7.7,0-7.9,0.1-7.9,7.9c0,184.6,0,369.3,0,553.9c0,0.7,0,1.3,0,2c0.3,5.4,0.8,5.9,6.3,5.9
			c185.8,0,371.6,0,557.4,0c5.9,0,5.9,0,5.9-6.3c0-156.5,0-313,0-469.5c0-1.3,0.1-2.7,0-4c-0.1-3,1.4-4.3,4.2-4.3c5,0,10.1,0,15.1,0
			c2.6,0,4.1,1.2,3.8,4c-0.1,1.2,0,2.3,0,3.5c0,163.7,0,327.4,0,491.1c0,8.4,0,8.4-8.6,8.4c-98.5,0-197,0-295.5,0
			c-100.5,0-201,0-301.6,0c-1.2,0-2.3,0-3.5,0c-6.4,0-6.4,0-6.4-6.3C273.8,723.5,273.9,622.8,273.9,522.2z"/>
	</g>
</g>
</svg>
