<svg xmlns="http://www.w3.org/2000/svg" width="50" height="50" viewBox="0 0 50 50">
  <path id="noun_help_926218" d="M25.008,0A25.006,25.006,0,0,0,0,25,25,25,0,1,0,42.687,7.319,24.858,24.858,0,0,0,25.008,0Zm0,4.245h0a20.755,20.755,0,1,1,0,41.511A20.755,20.755,0,0,1,10.327,10.321,20.624,20.624,0,0,1,25,4.245Zm.1,8.89a8.838,8.838,0,0,0-4.313,1.013A7.394,7.394,0,0,0,17.98,16.7a5.714,5.714,0,0,0-.968,3.043,1.9,1.9,0,0,0,.6,1.35,2.016,2.016,0,0,0,1.495.626q1.5,0,2.039-1.787a6.951,6.951,0,0,1,1.387-2.584,3.352,3.352,0,0,1,2.557-.878,3.447,3.447,0,0,1,2.427.869,2.8,2.8,0,0,1,.941,2.134,2.387,2.387,0,0,1-.311,1.2,4.42,4.42,0,0,1-.756,1c-.3.3-.788.747-1.459,1.337A25.207,25.207,0,0,0,24.1,24.757a5.6,5.6,0,0,0-1.5,4.006,2.119,2.119,0,0,0,.563,1.6,1.916,1.916,0,0,0,1.382.536,1.756,1.756,0,0,0,1.877-1.643c.117-.518.2-.878.261-1.085a3.5,3.5,0,0,1,.243-.617,3.369,3.369,0,0,1,.482-.68,10.969,10.969,0,0,1,.86-.86q1.945-1.742,2.7-2.471A7.273,7.273,0,0,0,32.26,21.8a4.874,4.874,0,0,0,.545-2.354,5.636,5.636,0,0,0-.954-3.16,6.538,6.538,0,0,0-2.71-2.3,9.172,9.172,0,0,0-4.038-.846Zm-.378,19.2a2.357,2.357,0,0,0-1.711.68,2.256,2.256,0,0,0-.7,1.674,2.175,2.175,0,0,0,.72,1.746,2.494,2.494,0,0,0,1.684.626,2.408,2.408,0,0,0,1.643-.635,2.2,2.2,0,0,0,.711-1.737,2.314,2.314,0,0,0-2.35-2.354Z" fill="#373a3c"/>
</svg>
