<svg xmlns="http://www.w3.org/2000/svg" width="50" height="50" viewBox="0 0 50 50">
  <g id="android-settings" transform="translate(-2.234 -2.2)">
    <path id="Pfad_635" data-name="Pfad 635" d="M46.233,29.751v-5.1l5.383-4.082c.513-.255.513-1.02.256-1.531l-5.126-8.673a1.236,1.236,0,0,0-1.538-.51L38.8,12.4a24.366,24.366,0,0,0-4.357-2.551L33.673,3.22A1.171,1.171,0,0,0,32.392,2.2H22.139a1.7,1.7,0,0,0-1.282,1.02L19.832,9.853A19.355,19.355,0,0,0,15.475,12.4L9.067,9.853a1.236,1.236,0,0,0-1.538.51L2.4,19.037a1.56,1.56,0,0,0,.256,1.531l5.383,4.082v5.1L2.659,33.833c-.513.255-.513,1.02-.256,1.531l5.126,8.673a1.236,1.236,0,0,0,1.538.51L15.475,42a24.366,24.366,0,0,0,4.357,2.551l1.025,6.633c.256.51.513,1.02,1.282,1.02H32.392a1.7,1.7,0,0,0,1.282-1.02L34.7,44.547A19.356,19.356,0,0,0,39.056,42l6.408,2.551A1.236,1.236,0,0,0,47,44.037l5.126-8.673a1.56,1.56,0,0,0-.256-1.531ZM27.265,35.873A8.843,8.843,0,0,1,18.294,27.2a8.684,8.684,0,0,1,8.971-8.673A8.684,8.684,0,0,1,36.237,27.2,8.843,8.843,0,0,1,27.265,35.873Z" transform="translate(0 0)" fill="#373a3c"/>
  </g>
</svg>
